<svg width="329" height="279" viewBox="0 0 329 279" fill="none" xmlns="http://www.w3.org/2000/svg">
<g clip-path="url(#clip0_10_319)">
<path d="M164.5 143.927C120.561 143.927 79.2536 136.444 48.1814 122.847C33.0738 116.238 21.2142 108.544 12.9263 99.9708C4.35071 91.1041 0 81.6806 0 71.9637C0 62.2468 4.35071 52.8233 12.9263 43.9505C21.2142 35.3831 33.0738 27.6839 48.1814 21.0742C79.2536 7.48374 120.561 0 164.5 0C208.439 0 249.752 7.48374 280.819 21.0802C295.926 27.6899 307.786 35.3831 316.074 43.9565C324.649 52.8293 329 62.2528 329 71.9697C329 81.6866 324.649 91.1101 316.074 99.9828C307.792 108.55 295.926 116.249 280.819 122.859C249.746 136.45 208.439 143.939 164.5 143.939V143.927ZM164.5 5.987C121.37 5.987 80.9136 13.2971 50.5845 26.5643C36.196 32.8566 24.9776 40.1069 17.235 48.1115C9.77412 55.8287 5.99271 63.8513 5.99271 71.9637C5.99271 80.0761 9.77412 88.0986 17.235 95.8159C24.9776 103.82 36.196 111.071 50.5845 117.363C80.9136 130.63 121.37 137.94 164.5 137.94C207.63 137.94 248.086 130.63 278.415 117.363C292.804 111.071 304.022 103.82 311.765 95.8159C319.226 88.0986 323.007 80.0761 323.007 71.9637C323.007 63.8513 319.226 55.8287 311.765 48.1115C304.028 40.1069 292.804 32.8566 278.415 26.5643C248.086 13.2971 207.63 5.987 164.5 5.987Z" fill="white"/>
<path d="M164.5 177.7C120.561 177.7 79.2477 170.216 48.1814 156.62C33.0738 150.01 21.2142 142.317 12.9263 133.744C4.35071 124.871 0 115.447 0 105.73C0 96.0135 4.35071 86.59 12.9263 77.7173C21.2082 69.1499 33.0738 61.4506 48.1814 54.841C79.2536 41.2505 120.561 33.7607 164.5 33.7607C208.439 33.7607 249.746 41.2445 280.819 54.841C295.926 61.4506 307.786 69.1499 316.074 77.7173C324.649 86.59 329 96.0135 329 105.73C329 115.447 324.649 124.871 316.074 133.744C307.792 142.311 295.926 150.01 280.819 156.62C249.752 170.21 208.439 177.7 164.5 177.7ZM164.5 39.7537C121.37 39.7537 80.9136 47.0638 50.5845 60.331C36.196 66.6234 24.9776 73.8796 17.235 81.8842C9.77412 89.6015 5.99271 97.624 5.99271 105.736C5.99271 113.849 9.77412 121.871 17.235 129.589C24.9716 137.593 36.196 144.843 50.5845 151.136C80.9136 164.403 121.37 171.713 164.5 171.713C207.63 171.713 248.086 164.403 278.415 151.136C292.804 144.843 304.022 137.593 311.765 129.589C319.226 121.871 323.007 113.849 323.007 105.736C323.007 97.624 319.226 89.6015 311.765 81.8842C304.028 73.8796 292.804 66.6293 278.415 60.331C248.086 47.0638 207.63 39.7537 164.5 39.7537Z" fill="white"/>
<path d="M164.5 211.467C120.561 211.467 79.2536 203.983 48.1814 190.386C33.0738 183.777 21.2142 176.083 12.9263 167.51C4.35071 158.637 0 149.214 0 139.503C0 129.792 4.35071 120.362 12.9263 111.49C21.2142 102.922 33.0738 95.2231 48.1814 88.6134C79.2536 75.0229 120.561 67.5332 164.5 67.5332C208.439 67.5332 249.752 75.0169 280.819 88.6134C295.926 95.2231 307.786 102.916 316.074 111.49C324.649 120.362 329 129.786 329 139.503C329 149.22 324.649 158.643 316.074 167.516C307.786 176.083 295.926 183.783 280.819 190.392C249.746 203.983 208.439 211.473 164.5 211.473V211.467ZM164.5 73.5262C121.37 73.5262 80.9136 80.8303 50.5845 94.1035C36.196 100.396 24.9776 107.646 17.235 115.651C9.77412 123.368 5.99271 131.39 5.99271 139.503C5.99271 147.615 9.77412 155.638 17.235 163.355C24.9776 171.36 36.196 178.61 50.5845 184.902C80.9136 198.169 121.37 205.48 164.5 205.48C207.63 205.48 248.086 198.169 278.415 184.902C292.804 178.61 304.022 171.36 311.765 163.355C319.226 155.638 323.007 147.615 323.007 139.503C323.007 131.39 319.226 123.368 311.765 115.651C304.028 107.646 292.804 100.396 278.415 94.1035C248.086 80.8363 207.63 73.5262 164.5 73.5262Z" fill="white"/>
<path d="M164.5 245.233C120.561 245.233 79.2477 237.75 48.1814 224.153C33.0738 217.543 21.2142 209.85 12.9263 201.277C4.35071 192.404 0 182.981 0 173.264C0 163.547 4.35071 154.123 12.9263 145.25C21.2142 136.683 33.0738 128.984 48.1814 122.374C79.2536 108.784 120.561 101.294 164.5 101.294C208.439 101.294 249.746 108.778 280.819 122.374C295.926 128.984 307.786 136.677 316.074 145.25C324.649 154.123 329 163.547 329 173.264C329 182.981 324.649 192.404 316.074 201.277C307.792 209.844 295.926 217.543 280.819 224.153C249.752 237.744 208.439 245.233 164.5 245.233ZM164.5 107.293C121.37 107.293 80.9136 114.603 50.5845 127.87C36.196 134.163 24.9776 141.413 17.235 149.423C9.77412 157.141 5.99271 165.163 5.99271 173.276C5.99271 181.388 9.77412 189.411 17.235 197.128C24.9776 205.132 36.196 212.383 50.5845 218.681C80.9136 231.948 121.37 239.258 164.5 239.258C207.63 239.258 248.086 231.948 278.415 218.681C292.804 212.389 304.022 205.138 311.765 197.128C319.226 189.411 323.007 181.388 323.007 173.276C323.007 165.163 319.226 157.141 311.765 149.423C304.028 141.419 292.804 134.169 278.415 127.87C248.086 114.603 207.63 107.293 164.5 107.293Z" fill="white"/>
<path d="M164.5 279C120.561 279 79.2477 271.516 48.1814 257.92C33.0738 251.31 21.2142 243.617 12.9263 235.043C4.35071 226.171 0 216.747 0 207.03C0 197.313 4.35071 187.89 12.9263 179.017C21.2142 170.45 33.0738 162.75 48.1814 156.141C79.2536 142.55 120.561 135.061 164.5 135.061C208.439 135.061 249.746 142.544 280.819 156.141C295.926 162.75 307.786 170.444 316.074 179.017C324.649 187.89 329 197.313 329 207.03C329 216.747 324.649 226.171 316.074 235.043C307.786 243.611 295.926 251.31 280.819 257.92C249.752 271.51 208.439 279 164.5 279ZM164.5 141.06C121.37 141.06 80.9136 148.37 50.5845 161.637C36.196 167.929 24.9776 175.179 17.235 183.184C9.77412 190.901 5.99271 198.924 5.99271 207.036C5.99271 215.149 9.77412 223.171 17.235 230.888C24.9776 238.893 36.196 246.143 50.5845 252.436C80.9136 265.703 121.37 273.013 164.5 273.013C207.63 273.013 248.086 265.703 278.415 252.436C292.804 246.143 304.022 238.893 311.765 230.888C319.226 223.171 323.007 215.149 323.007 207.036C323.007 198.924 319.226 190.901 311.765 183.184C304.022 175.179 292.804 167.929 278.415 161.637C248.086 148.37 207.63 141.06 164.5 141.06Z" fill="white"/>
</g>
<defs>
<clipPath id="clip0_10_319">
<rect width="329" height="279" fill="white"/>
</clipPath>
</defs>
</svg>
