<svg width="42" height="42" viewBox="0 0 42 42" fill="none" xmlns="http://www.w3.org/2000/svg">
<path d="M29.7577 2.07129H12.2368C6.58319 2.07129 2 6.65448 2 12.3081V29.8289C2 35.4825 6.58319 40.0657 12.2368 40.0657H29.7576C35.4112 40.0657 39.9944 35.4825 39.9944 29.8289V12.3081C39.9945 6.65448 35.4113 2.07129 29.7577 2.07129Z" stroke="white" stroke-width="3" stroke-miterlimit="10"/>
<path d="M20.9973 30.2396C26.0623 30.2396 30.1684 26.1336 30.1684 21.0686C30.1684 16.0035 26.0623 11.8975 20.9973 11.8975C15.9322 11.8975 11.8262 16.0035 11.8262 21.0686C11.8262 26.1336 15.9322 30.2396 20.9973 30.2396Z" stroke="white" stroke-width="3" stroke-miterlimit="10"/>
<path d="M32.1335 11.8975C33.2189 11.8975 34.0988 11.0176 34.0988 9.93222C34.0988 8.84685 33.2189 7.96698 32.1335 7.96698C31.0481 7.96698 30.1683 8.84685 30.1683 9.93222C30.1683 11.0176 31.0481 11.8975 32.1335 11.8975Z" fill="white"/>
</svg>
