<svg width="278" height="278" viewBox="0 0 278 278" fill="none" xmlns="http://www.w3.org/2000/svg">
<path d="M197.971 56.1572C202.731 34.8903 189.349 13.7888 168.082 9.02863C146.815 4.26848 125.714 17.6514 120.954 38.9183C116.194 60.1852 133.587 138.628 138.812 139.797C144.037 140.967 193.211 77.4242 197.971 56.1572Z" fill="white"/>
<path d="M56.1573 80.0137C34.8907 75.2535 13.7893 88.6365 9.02913 109.903C4.26891 131.17 17.6515 152.272 38.9181 157.032C60.1848 161.792 138.626 144.398 139.796 139.173C140.966 133.948 77.4239 84.7738 56.1573 80.0137Z" fill="white"/>
<path d="M80.0163 221.83C75.2561 243.097 88.6349 264.198 109.905 268.959C131.172 273.719 152.273 260.336 157.033 239.069C161.794 217.802 144.401 139.359 139.176 138.19C133.95 137.02 84.7765 200.563 80.0163 221.83Z" fill="white"/>
<path d="M221.83 197.974C243.097 202.734 264.198 189.351 268.958 168.084C273.718 146.817 260.336 125.715 239.069 120.955C217.803 116.195 139.361 133.589 138.191 138.814C137.022 144.039 200.563 193.213 221.83 197.974Z" fill="white"/>
</svg>
