<svg width="157" height="157" viewBox="0 0 157 157" fill="none" xmlns="http://www.w3.org/2000/svg">
<g clip-path="url(#clip0_3_46)">
<path d="M118.561 156.253L82.8947 103.008C78.151 95.9472 69.0298 93.211 61.2102 96.5028L2.12554 121.324L0.637584 118.561L53.8825 82.8948C60.9399 78.1502 63.6791 69.0298 60.3874 61.2103L35.5656 2.12558L38.3288 0.637624L73.9953 53.8825C78.74 60.94 87.8603 63.6792 95.6798 60.3874L154.765 35.5657L156.252 38.3289L103.008 73.9954C95.9502 78.74 93.211 87.8604 96.5027 95.6799L121.324 154.765L118.561 156.253ZM74.1091 92.8555C78.641 94.215 82.7195 97.0971 85.5112 101.252L112.092 140.934L93.5949 96.904C89.7216 87.6989 92.9423 76.9623 101.252 71.3789L140.934 44.798L96.9039 63.2952C87.6989 67.1685 76.9623 63.9478 71.3789 55.6383L44.797 15.9591L63.2943 59.9892C67.1676 69.1943 63.9469 79.9309 55.6374 85.5143L15.9551 112.095L59.9853 93.598C64.5878 91.6613 69.5762 91.4991 74.1082 92.8585L74.1091 92.8555Z" fill="white"/>
</g>
<defs>
<clipPath id="clip0_3_46">
<rect width="126" height="126" fill="white" transform="translate(36.2032) rotate(16.698)"/>
</clipPath>
</defs>
</svg>
